HIERARCHY
ROOT Hips
{
	OFFSET 0.00000 0.00000 0.00000
	CHANNELS 6 Xposition Yposition Zposition Yrotation Zrotation Xrotation 
	JOINT Lumbar
	{
		OFFSET 0 0 0
		CHANNELS 3 Zrotation Xrotation Yrotation
		JOINT Neck
		{
			OFFSET 0.00 0.2701 0.00
			CHANNELS 3 Zrotation Xrotation Yrotation
			End Site
			{
				OFFSET 0.00 0.1379 0.00
			}
		}
		JOINT RightShoulder
		{
			OFFSET 0.0119 0.2289 0.1181
			CHANNELS 3 Zrotation Xrotation Yrotation
			JOINT RightElbow
			{
				OFFSET 0.00 -0.1475 0.00
				CHANNELS 2 Zrotation Yrotation
				JOINT RightWrist
				{
					OFFSET 0.00 -0.1605 0.00
					CHANNELS 2 Zrotation Xrotation
					End Site
					{
						OFFSET 0.0040 -0.1068 0.0006
					}
				}
			}
		}
		JOINT LeftShoulder
		{
			OFFSET 0.0119 0.2289 -0.1181
			CHANNELS 3 Zrotation Xrotation Yrotation
			JOINT LeftElbow
			{
				OFFSET 0.00 -0.1475 0.00
				CHANNELS 2 Zrotation Yrotation
				JOINT LeftWrist
				{
					OFFSET 0.00 -0.1605 0.00
					CHANNELS 2 Zrotation Xrotation
					End Site
					{
						OFFSET 0.0040 -0.1068 -0.0006
					}
				}
			}
		}
	}
	JOINT RightHip
	{
		OFFSET 0.0316 -0.0424 0.0458
		CHANNELS 3 Zrotation Xrotation Yrotation
		JOINT RightKnee
		{
			OFFSET 0.00 -0.2438 0.00
			CHANNELS 1 Zrotation
			JOINT RightAnkle
			{
				OFFSET 0.00 -0.2449 0.00
				CHANNELS 3 Zrotation Xrotation Yrotation
				End Site
				{
					OFFSET 0.1237 -0.0542 0.0051
				}
			}
		}
	}
	JOINT LeftHip
	{
		OFFSET 0.0316 -0.0424 -0.0458
		CHANNELS 3 Zrotation Xrotation Yrotation
		JOINT LeftKnee
		{
			OFFSET 0.00 -0.2438 0.00
			CHANNELS 1 Zrotation
			JOINT LeftAnkle
			{
				OFFSET 0.00 -0.2449 0.00
				CHANNELS 3 Zrotation Xrotation Yrotation
				End Site
				{
					OFFSET 0.1237 -0.0542 -0.0051
				}
			}
		}
	}
}
MOTION
Frames: 11
Frame Time: 0.02
-0.00015 3e-05 -6e-05 177.42531 -40.28851 -2.70636 50.06023 1.4389 -2.04004 1.75298 0.57705 -0.40333 -19.80549 -12.67734 5.72543 28.81934 60.16631 -4.22358 -3.33088 -21.88401 8.93729 7.39414 46.28724 -142.04074 26.65005 -7.47868 43.72617 0.97149 -5.11459 -19.03654 -6.22033 -3.51238 -2.44183 46.52873 3.47012 6.88887 -24.96009 -6.17312 2.34572 1.85003
-0.00014 3e-05 -3e-05 177.38549 -40.30186 -2.71101 50.04752 1.45117 -2.03546 1.75357 0.59664 -0.40367 -19.64816 -12.08708 3.68835 28.80967 66.6177 -2.44577 -2.38429 -21.99194 8.68818 7.40105 46.28626 -142.01736 26.60307 -7.47034 43.74335 0.93581 -5.30718 -19.03936 -6.21516 -3.47975 -2.42362 46.54859 3.42141 6.66804 -24.9653 -6.17116 2.39153 1.86954
-0.00013 2e-05 -0 177.3457 -40.31517 -2.71567 50.03483 1.46345 -2.03081 1.75407 0.61625 -0.40401 -19.4912 -11.49833 1.65642 28.79994 73.05205 -0.67286 -1.44011 -22.09984 8.43993 7.40709 46.28583 -141.99347 26.55604 -7.46175 43.76048 0.90024 -5.49921 -19.04218 -6.21 -3.4472 -2.40545 46.56839 3.37285 6.44784 -24.97049 -6.16921 2.4372 1.889
-0.00012 2e-05 2e-05 177.30599 -40.32849 -2.7203 50.02216 1.47569 -2.02623 1.75465 0.63579 -0.40435 -19.33433 -10.90981 -0.37466 28.79029 79.48428 1.09963 -0.49631 -22.20745 8.1915 7.41399 46.28487 -141.97044 26.50929 -7.45344 43.77761 0.86467 -5.69122 -19.045 -6.20484 -3.41467 -2.3873 46.58819 3.32428 6.22769 -24.97568 -6.16727 2.48287 1.90845
-0.00011 2e-05 5e-05 177.26628 -40.34184 -2.72492 50.00949 1.48791 -2.02173 1.75533 0.65528 -0.40469 -19.17717 -10.31996 -2.41023 28.78072 85.93177 2.87662 0.44958 -22.31507 7.94245 7.42168 46.28337 -141.9471 26.46234 -7.44534 43.79477 0.82899 -5.88377 -19.04781 -6.19967 -3.38206 -2.36909 46.60806 3.27556 6.0069 -24.98089 -6.16531 2.52868 1.92796
-0.0001 2e-05 7e-05 177.22632 -40.35506 -2.72966 49.99674 1.50034 -2.01676 1.75546 0.67514 -0.40503 -19.02066 -9.7336 -4.43422 28.77062 92.33775 4.64077 1.39007 -22.42361 7.69602 7.42403 46.28528 -141.92151 26.41495 -7.43566 43.81184 0.79368 -6.0747 -19.05063 -6.19454 -3.34966 -2.35102 46.62769 3.22734 5.78796 -24.98605 -6.16338 2.57404 1.94732
-9e-05 1e-05 0.0001 177.18694 -40.36853 -2.73415 49.98416 1.51231 -2.0128 1.75674 0.69423 -0.40538 -18.86295 -9.1407 -6.47989 28.76164 98.82173 6.42915 2.34065 -22.52991 7.44391 7.43815 46.27982 -141.90313 26.36937 -7.4295 43.82908 0.75765 -6.26869 -19.05344 -6.18934 -3.31686 -2.3327 46.64778 3.17818 5.56558 -24.9913 -6.1614 2.62024 1.96695
-8e-05 1e-05 0.00013 177.14696 -40.38178 -2.73887 49.97143 1.52475 -2.00782 1.75685 0.71404 -0.40572 -18.70647 -8.55416 -8.50445 28.75158 105.23097 8.19456 3.28143 -22.63875 7.1983 7.43956 46.28209 -141.87326 26.32054 -7.4195 43.84617 0.72228 -6.45985 -19.05626 -6.1842 -3.28443 -2.3146 46.66745 3.12986 5.34628 -24.99646 -6.15947 2.6657 1.98634
-7e-05 1e-05 0.00015 177.10649 -40.39475 -2.74387 49.95848 1.53757 -2.00189 1.75598 0.7347 -0.40606 -18.55088 -7.97376 -10.50866 28.74035 111.5632 9.93523 4.21268 -22.74894 6.95553 7.43266 46.29017 -141.84847 26.27395 -7.40711 43.86305 0.68772 -6.64765 -19.0591 -6.17913 -3.25247 -2.29679 46.68664 3.08265 5.13105 -25.00154 -6.15759 2.71017 2.00539
-6e-05 1e-05 0.00018 177.06955 -40.40929 -2.74728 49.94669 1.54762 -2.00231 1.76209 0.75038 -0.4064 -18.38833 -7.35311 -12.64646 28.73633 118.3819 11.82835 5.20616 -22.8461 6.68107 7.49527 46.2539 -141.85195 26.23314 -7.41541 43.88105 0.64851 -6.8551 -19.06185 -6.17364 -3.21786 -2.2774 46.70865 3.02928 4.89332 -25.00716 -6.15537 2.76006 2.02628
-5e-05 1e-05 0.0002 177.02471 -40.42052 -2.75402 49.93255 1.56387 -1.98879 1.75264 0.77662 -0.40674 -18.24169 -6.82062 -14.49159 28.71679 124.14572 13.39317 6.06353 -22.97408 6.4833 7.39747 46.31812 -141.75909 26.16823 -7.37564 43.89673 0.61913 -7.02086 -19.06477 -6.16905 -3.18878 -2.26128 46.72467 2.98876 4.70246 -25.0116 -6.15391 2.79868 2.04336
